<svg width="21" height="21" viewBox="0 0 21 21" fill="none" xmlns="http://www.w3.org/2000/svg">
<path d="M20.1009 19.0009H1.70088C1.25838 19.0009 0.900879 19.3584 0.900879 19.8009V20.7009C0.900879 20.8109 0.990879 20.9009 1.10088 20.9009H20.7009C20.8109 20.9009 20.9009 20.8109 20.9009 20.7009V19.8009C20.9009 19.3584 20.5434 19.0009 20.1009 19.0009ZM4.54338 16.9009C4.59338 16.9009 4.64338 16.8959 4.69338 16.8884L8.89838 16.1509C8.94838 16.1409 8.99588 16.1184 9.03088 16.0809L19.6284 5.48338C19.6516 5.46025 19.6699 5.43278 19.6825 5.40254C19.695 5.37229 19.7015 5.33987 19.7015 5.30713C19.7015 5.27439 19.695 5.24197 19.6825 5.21172C19.6699 5.18148 19.6516 5.15401 19.6284 5.13088L15.4734 0.973379C15.4259 0.925879 15.3634 0.900879 15.2959 0.900879C15.2284 0.900879 15.1659 0.925879 15.1184 0.973379L4.52088 11.5709C4.48338 11.6084 4.46088 11.6534 4.45088 11.7034L3.71338 15.9084C3.68906 16.0423 3.69775 16.1801 3.7387 16.31C3.77964 16.4398 3.85162 16.5576 3.94838 16.6534C4.11338 16.8134 4.32088 16.9009 4.54338 16.9009Z" fill="#F3A21F"/>
</svg>
